<?xml version="1.0" standalone="no"?>
<!DOCTYPE svg PUBLIC "-//W3C//DTD SVG 20010904//EN"
 "http://www.w3.org/TR/2001/REC-SVG-20010904/DTD/svg10.dtd">
<svg version="1.0" xmlns="http://www.w3.org/2000/svg"
 width="281.000000pt" height="1033.000000pt" viewBox="0 0 281.000000 1033.000000"
 preserveAspectRatio="xMidYMid meet">

<g transform="translate(0.000000,1033.000000) scale(0.100000,-0.100000)"
fill="#000000" stroke="none">
<path d="M2102 10203 c-17 -3 -22 -9 -17 -21 12 -32 27 -112 23 -128 -3 -19
-83 -47 -110 -38 -12 4 -20 26 -29 79 -13 73 -20 84 -47 67 -10 -7 -5 -50 23
-213 50 -291 95 -588 95 -630 0 -73 -35 -90 -261 -128 -63 -11 -220 -34 -349
-51 -129 -17 -244 -33 -256 -36 -13 -4 -31 3 -48 18 -24 21 -32 44 -71 233
-41 198 -102 471 -125 555 -9 34 -13 37 -35 32 -14 -4 -25 -9 -26 -12 0 -3 7
-31 16 -63 9 -32 14 -64 11 -72 -7 -19 -96 -32 -106 -15 -4 7 -14 39 -20 72
-13 57 -14 59 -39 53 -14 -4 -27 -7 -28 -8 -1 -1 23 -101 53 -222 214 -873
378 -1935 434 -2810 5 -88 10 -288 10 -445 0 -241 -5 -348 -23 -530 -2 -25 -2
-25 96 -28 87 -2 97 -1 97 15 1 74 21 199 35 212 13 14 49 16 248 15 128 0
302 -6 387 -13 203 -16 197 -10 180 -163 -16 -147 -37 -259 -61 -322 -22 -59
-11 -83 21 -48 14 15 32 22 58 22 56 0 68 -12 47 -44 -13 -20 -26 -26 -54 -26
-27 0 -32 -3 -21 -10 11 -7 11 -10 2 -10 -7 0 -81 67 -165 148 -84 82 -163
155 -177 162 -58 31 -132 39 -249 27 -68 -7 -73 -6 -60 9 12 15 11 16 -11 10
-70 -20 -104 -61 -141 -168 -19 -53 -22 -85 -22 -198 1 -76 -4 -140 -9 -147
-6 -7 -31 -13 -57 -13 -85 0 -791 61 -817 70 -36 14 -44 47 -44 176 0 160 36
258 114 305 l31 19 -58 -4 c-32 -2 -61 -7 -64 -10 -4 -3 -17 -6 -30 -6 -24 0
-31 15 -10 23 6 3 -1 6 -16 6 -41 1 -83 -24 -117 -71 -87 -120 -81 -326 20
-738 66 -265 111 -417 345 -1155 377 -1189 510 -1723 586 -2355 30 -249 33
-775 6 -1000 -17 -138 -17 -146 0 -158 16 -11 18 -10 21 7 3 17 11 21 37 21
36 0 59 -24 53 -57 -5 -28 30 -28 36 -1 14 61 36 345 42 541 7 216 7 217 30
217 31 0 626 -203 660 -225 l27 -17 -6 -222 c-6 -193 -15 -315 -43 -548 -6
-48 -4 -58 8 -58 9 0 18 8 20 18 4 15 12 18 39 14 45 -6 61 -20 57 -50 -2 -18
3 -27 20 -33 29 -11 27 -16 46 156 33 293 39 435 33 793 -10 743 -92 1278
-428 2802 -285 1293 -340 1679 -268 1893 38 114 29 115 177 -27 72 -68 143
-131 159 -139 15 -8 64 -17 108 -20 44 -4 95 -9 114 -13 21 -4 32 -3 28 2 -3
6 8 8 27 6 84 -10 136 126 170 448 93 869 -6 2570 -235 4035 -43 276 -32 250
-97 238z m32 -288 c3 -8 8 -44 12 -79 6 -56 4 -65 -12 -74 -35 -18 -91 -23
-101 -10 -16 20 -32 141 -21 155 19 24 113 30 122 8z m-1190 -292 c17 -77 13
-88 -40 -98 -48 -8 -59 4 -74 77 -11 56 -10 63 6 75 10 7 35 13 55 13 l37 0
16 -67z m1230 21 c12 -33 19 -151 8 -158 -6 -3 -31 -9 -55 -12 -56 -8 -67 7
-70 103 -2 67 -2 67 28 74 54 12 83 10 89 -7z m-1175 -277 c17 -80 11 -90 -50
-91 l-42 -1 -13 50 c-17 63 -17 102 -1 109 6 3 30 4 52 3 l40 -2 14 -68z
m1216 -9 c3 -13 6 -52 8 -88 l2 -64 -49 -9 c-64 -11 -73 -1 -82 90 -6 70 -6
73 17 82 13 5 41 10 61 10 31 1 39 -3 43 -21z m-1168 -228 c20 -85 15 -103
-31 -112 -51 -11 -61 -1 -76 78 -13 68 -10 78 25 87 55 14 69 5 82 -53z m1000
-10 c12 -10 24 -27 27 -37 21 -71 146 -1346 146 -1495 0 -9 -10 -28 -22 -42
l-23 -26 -370 -20 c-446 -24 -418 -24 -445 -2 -19 16 -24 39 -46 227 -34 303
-79 621 -130 928 -24 147 -44 280 -44 295 0 62 -4 61 426 128 220 34 413 62
430 63 17 1 39 -7 51 -19z m200 -37 c4 -10 7 -49 7 -88 l1 -70 -48 -8 c-28 -6
-52 -6 -57 -1 -10 11 -29 144 -23 161 10 27 110 31 120 6z m-1150 -218 c19
-89 16 -99 -35 -106 -25 -3 -46 -1 -51 5 -5 6 -15 40 -21 76 -11 58 -10 65 7
77 10 8 34 13 53 11 34 -3 35 -4 47 -63z m1185 -83 c5 -19 8 -57 6 -85 l-3
-52 -45 -7 c-60 -10 -68 1 -76 94 -8 86 -6 88 70 85 36 -2 41 -5 48 -35z
m-1146 -138 c4 -15 7 -52 8 -83 l1 -56 -46 -3 c-52 -3 -52 -4 -65 97 -8 61 0
71 58 71 32 0 39 -4 44 -26z m1168 -113 c3 -5 9 -41 12 -81 6 -56 4 -74 -7
-81 -19 -12 -96 -11 -104 1 -3 5 -9 42 -12 81 -5 55 -3 73 8 80 18 11 96 12
103 0z m-1130 -136 c3 -8 8 -44 12 -79 l7 -64 -44 -7 c-34 -6 -45 -4 -55 9
-13 19 -28 131 -19 146 10 17 92 12 99 -5z m1156 -145 c6 -11 10 -51 8 -88
l-3 -67 -52 -3 c-59 -3 -57 -6 -67 94 -5 56 0 69 29 77 46 11 74 7 85 -13z
m-1122 -107 c16 -30 23 -125 11 -140 -16 -18 -85 -17 -93 2 -3 8 -8 44 -12 79
-6 57 -5 65 12 69 42 11 74 7 82 -10z m1140 -155 c7 -7 12 -41 12 -84 l0 -73
-45 -7 c-65 -9 -75 3 -75 92 0 67 2 73 23 77 44 8 73 7 85 -5z m-1110 -90 c13
-17 26 -134 15 -141 -4 -3 -25 -8 -45 -12 -44 -8 -52 3 -62 88 -6 53 -5 58 16
67 33 13 64 12 76 -2z m1137 -212 c4 -23 5 -57 3 -76 -3 -32 -6 -35 -47 -42
-64 -11 -72 0 -69 86 l3 71 40 5 c56 8 63 4 70 -44z m-1101 -43 c2 -10 6 -43
8 -73 l3 -54 -38 -9 c-25 -6 -42 -5 -51 2 -14 11 -30 126 -20 142 3 5 25 9 49
9 33 0 45 -4 49 -17z m1110 -179 c3 -9 6 -44 6 -79 l0 -63 -46 -4 c-25 -2 -50
0 -57 4 -16 10 -22 125 -7 143 17 21 96 20 104 -1z m-180 -48 c36 -35 40 -114
41 -709 l0 -529 -25 -20 c-24 -20 -34 -20 -230 -14 -479 15 -560 19 -576 31
-14 10 -16 37 -15 201 2 197 -11 535 -29 759 -17 212 -17 223 5 245 18 17 52
21 390 38 204 11 380 20 393 21 13 0 34 -10 46 -23z m-900 -58 c11 -77 6 -88
-44 -88 -34 0 -42 4 -50 26 -6 14 -10 48 -10 75 l0 50 48 -3 47 -3 9 -57z
m1091 -203 l0 -70 -51 -3 c-46 -3 -52 -1 -58 20 -8 32 -8 113 1 122 4 4 30 6
58 4 l50 -3 0 -70z m-1072 -25 c10 -73 6 -80 -47 -80 -51 0 -56 7 -56 86 l0
55 47 -3 48 -3 8 -55z m1078 -151 c5 -8 8 -39 7 -69 l-3 -55 -55 0 -55 0 -3
63 c-3 57 -1 63 20 71 33 12 78 7 89 -10z m-1066 -32 c4 -13 5 -43 3 -68 l-3
-44 -45 0 -45 0 -6 60 c-4 33 -5 63 -2 68 2 4 24 7 48 7 38 0 45 -3 50 -23z
m1070 -247 l0 -65 -55 0 -55 0 -3 44 c-2 25 -1 55 3 68 5 22 10 24 58 21 l52
-3 0 -65z m-1059 37 c3 -13 4 -41 2 -63 l-3 -39 -45 0 -45 0 -5 52 c-3 28 -4
56 -2 62 2 6 23 11 48 11 37 0 44 -3 50 -23z m2 -236 c4 -62 -4 -70 -56 -62
-35 6 -37 8 -40 50 -5 65 1 73 50 69 l43 -3 3 -54z m1050 47 c15 -15 16 -82 2
-109 -7 -13 -21 -19 -45 -19 -58 0 -65 7 -65 64 0 61 12 76 60 76 20 0 41 -5
48 -12z m-1050 -235 c3 -45 0 -52 -18 -58 -11 -4 -34 -4 -50 0 -28 6 -30 10
-30 54 0 26 3 51 7 55 4 4 25 6 48 4 l40 -3 3 -52z m1050 -20 l-3 -58 -43 -3
c-58 -4 -68 6 -64 67 l4 51 54 0 55 0 -3 -57z m-1054 -113 c4 -5 5 -27 1 -50
l-7 -41 -46 3 -47 3 4 45 c2 25 8 48 14 52 13 8 68 -1 81 -12z m1034 -19 c9
-5 12 -25 10 -57 l-3 -49 -43 -3 c-57 -4 -72 9 -65 56 2 20 6 43 9 50 4 14 72
16 92 3z m-1046 -143 c3 -7 2 -35 -1 -63 l-6 -50 -45 0 c-44 0 -45 1 -48 36
-2 19 2 47 7 62 9 23 16 27 50 27 22 0 41 -5 43 -12z m1040 -88 c-4 -70 -17
-84 -71 -75 l-41 7 0 48 c0 76 5 81 64 78 l51 -3 -3 -55z m-1902 -95 c0 -3
-11 -28 -25 -55 -26 -52 -40 -58 -92 -44 -28 8 -29 29 -3 72 18 29 24 32 70
32 27 0 50 -2 50 -5z m1323 -32 l32 -18 -34 -3 c-19 -2 -45 -1 -59 3 -23 6
-24 7 -6 20 25 19 29 18 67 -2z m-175 -31 c-1 -4 -11 -28 -22 -54 -10 -26 -24
-49 -30 -51 -7 -3 -33 -3 -59 0 -54 6 -57 15 -27 73 20 40 20 40 81 40 33 0
59 -3 57 -8z m728 -6 c3 -8 1 -40 -6 -70 -13 -62 -28 -72 -87 -61 l-35 6 7 46
c12 84 19 93 70 93 30 0 47 -5 51 -14z m-444 -45 c18 -16 30 -32 27 -35 -3 -3
-27 -3 -55 0 -34 4 -60 15 -84 35 l-34 29 57 0 c49 0 61 -4 89 -29z m-1504
-73 c15 -15 16 -64 1 -73 -6 -4 -30 -4 -55 0 -42 6 -44 8 -44 39 0 18 3 36 7
39 11 12 78 8 91 -5z m1607 -28 c35 -33 31 -40 -20 -40 -38 0 -51 6 -83 36
l-37 35 58 -4 c43 -3 63 -10 82 -27z m-452 -50 c5 -4 5 -24 2 -44 -8 -39 -23
-44 -94 -30 -27 6 -31 11 -31 38 0 46 16 58 70 50 25 -3 49 -10 53 -14z m536
-36 c21 -15 21 -18 7 -26 -22 -12 -76 -1 -106 22 l-25 20 50 0 c31 0 60 -6 74
-16z m-1695 -10 c11 -4 16 -19 16 -45 l0 -39 -45 0 c-40 0 -47 3 -55 26 -20
51 -14 64 29 64 22 0 46 -3 55 -6z m1158 -97 c13 -20 9 -77 -4 -78 -38 -3 -95
4 -105 13 -14 11 -18 70 -5 82 10 11 105 -3 114 -17z m-1131 -56 c10 -10 20
-89 12 -94 -5 -3 -28 -2 -53 2 -42 6 -45 8 -52 46 -12 58 -6 66 44 59 24 -4
46 -9 49 -13z m549 -81 c237 -20 376 -35 397 -45 36 -16 35 -15 58 -155 27
-165 84 -446 146 -715 33 -143 67 -295 76 -338 27 -124 55 -120 -393 -47 -209
35 -389 69 -401 77 -13 7 -29 24 -38 36 -38 59 -280 925 -316 1135 -11 60 -10
67 7 79 12 9 33 12 59 8 22 -2 204 -18 405 -35z m588 -12 c6 -7 12 -33 13 -58
4 -51 -6 -57 -76 -42 -37 7 -40 11 -47 51 -4 24 -5 48 -2 52 8 14 100 11 112
-3z m-1106 -77 c13 -12 27 -96 18 -105 -5 -5 -26 -5 -51 0 -41 9 -43 11 -55
58 -7 28 -10 54 -7 59 5 9 83 0 95 -12z m1127 -105 c6 -8 14 -37 18 -65 l6
-51 -45 0 c-60 0 -76 15 -84 78 l-7 52 50 0 c31 0 55 -5 62 -14z m-1091 -83
c21 -20 46 -103 33 -116 -4 -4 -25 -4 -47 1 -42 9 -57 29 -69 95 l-7 37 35 0
c19 0 44 -8 55 -17z m1121 -122 c18 -18 37 -103 27 -120 -8 -12 -88 -2 -102
13 -14 13 -35 106 -28 118 10 16 84 8 103 -11z m-1062 -85 c18 -17 43 -115 32
-122 -5 -3 -27 -3 -48 1 -41 7 -43 10 -70 94 -6 18 -8 37 -6 41 7 11 77 0 92
-14z m1109 -129 c13 -13 33 -122 24 -131 -14 -14 -99 3 -109 22 -12 23 -25
108 -17 120 5 9 91 0 102 -11z m-1063 -76 c18 -7 28 -23 40 -68 10 -33 17 -62
17 -66 0 -12 -65 -8 -83 6 -18 13 -47 87 -47 118 0 21 32 25 73 10z m1099
-147 c18 -5 53 -133 40 -146 -4 -4 -28 -4 -52 0 -52 9 -67 31 -77 113 l-6 50
39 -6 c21 -4 47 -9 56 -11z m-1016 -88 c10 -9 44 -111 44 -130 0 -9 -46 -7
-74 4 -19 7 -29 23 -44 72 -10 35 -17 67 -15 71 6 10 75 -2 89 -17z m1078
-156 c13 -13 38 -132 29 -141 -5 -5 -29 -5 -53 -1 -41 7 -46 11 -58 46 -6 21
-15 56 -19 78 l-6 41 49 -7 c27 -4 53 -11 58 -16z m-1008 -74 c10 -9 44 -111
44 -130 0 -11 -66 -6 -82 7 -16 13 -48 98 -48 129 0 16 5 18 38 12 20 -3 42
-11 48 -18z m1056 -167 c15 -8 49 -125 41 -141 -7 -14 -68 -9 -90 7 -20 14
-43 81 -43 129 0 23 3 24 38 19 20 -3 44 -10 54 -14z m-517 -60 c337 -58 372
-66 396 -89 24 -22 35 -58 93 -305 105 -449 138 -605 132 -621 -3 -8 -14 -14
-25 -14 -11 0 -178 36 -373 81 -289 65 -357 84 -376 103 -17 17 -40 82 -87
242 -35 121 -91 310 -124 421 -34 111 -61 210 -61 221 0 22 16 32 40 27 8 -2
181 -32 385 -66z m-505 35 c31 -7 41 -21 56 -79 7 -28 -1 -30 -57 -15 -30 8
-38 17 -47 49 -18 57 -18 58 48 45z m71 -165 c16 -8 42 -77 33 -90 -2 -5 -10
-6 -17 -4 -7 2 -25 6 -40 10 -20 4 -33 16 -43 40 -23 55 -19 65 19 58 17 -3
39 -9 48 -14z m1007 -34 c8 -7 16 -31 19 -55 l6 -42 -44 7 c-56 9 -69 22 -76
74 l-6 42 44 -7 c24 -4 50 -12 57 -19z m-952 -127 c7 -7 16 -31 20 -52 7 -38
6 -39 -17 -33 -13 4 -32 7 -42 7 -18 0 -47 53 -47 86 0 14 7 16 37 11 20 -4
42 -12 49 -19z m969 -23 c18 -4 27 -15 34 -43 19 -67 13 -72 -60 -52 -32 9
-38 16 -47 52 -13 50 -9 60 24 53 13 -3 35 -7 49 -10z m-931 -122 c9 -6 36
-67 36 -83 0 -14 -40 -12 -69 3 -24 12 -55 79 -43 92 6 6 59 -3 76 -12z m988
-51 c9 -10 28 -85 23 -91 -3 -2 -26 0 -53 5 -43 8 -48 12 -60 48 -18 57 -12
66 40 55 24 -6 46 -13 50 -17z m-923 -135 c19 -53 15 -68 -16 -61 -48 12 -62
23 -72 61 -6 20 -8 39 -6 44 3 4 23 2 44 -3 31 -8 42 -17 50 -41z m940 -20
c25 -12 47 -67 37 -93 -4 -10 -13 -10 -43 -2 -49 13 -60 24 -68 71 -7 36 -6
37 21 37 16 0 40 -6 53 -13z m-939 -93 c32 -7 40 -18 54 -77 7 -28 6 -28 -31
-21 -47 8 -55 15 -69 64 -13 44 -12 45 46 34z m970 -63 c18 -5 28 -18 37 -51
7 -24 10 -47 5 -50 -4 -4 -26 -3 -50 2 -44 10 -51 18 -66 81 -6 25 -4 27 21
26 16 -1 39 -4 53 -8z m-898 -97 c10 -7 31 -85 24 -92 -3 -3 -23 0 -45 7 -30
9 -42 19 -50 43 -19 54 -16 61 26 53 21 -4 41 -9 45 -11z m439 -104 c189 -44
358 -86 376 -94 39 -19 41 -25 97 -311 58 -300 100 -561 92 -580 -3 -8 -16
-15 -28 -15 -47 0 -670 183 -695 204 -20 18 -30 51 -64 206 -22 102 -66 289
-98 415 -56 218 -60 255 -31 255 4 0 162 -36 351 -80z m515 27 c7 -7 15 -30
19 -51 l6 -39 -42 6 c-51 7 -65 20 -75 71 l-7 39 44 -7 c24 -4 49 -12 55 -19z
m-914 -73 c10 -6 31 -85 25 -91 -3 -2 -23 1 -46 7 -35 9 -42 16 -51 48 -5 20
-10 41 -10 46 0 8 66 0 82 -10z m945 -87 c6 -7 15 -29 18 -49 6 -33 5 -38 -12
-38 -43 0 -83 22 -89 48 -3 15 -8 33 -10 40 -2 8 -2 18 1 22 6 10 76 -7 92
-23z m-905 -65 c8 -9 29 -85 24 -90 -2 -2 -22 2 -45 8 -35 9 -42 16 -51 48 -5
20 -10 41 -10 46 0 9 71 -1 82 -12z m930 -83 c15 -8 36 -85 25 -95 -10 -10
-87 17 -96 34 -8 15 -15 56 -12 74 1 9 58 -1 83 -13z m-891 -66 c4 -4 11 -27
15 -50 l6 -42 -38 10 c-49 14 -51 16 -60 63 l-7 39 38 -6 c21 -3 42 -10 46
-14z m926 -96 c6 -7 15 -30 19 -51 l7 -39 -44 7 c-54 9 -59 14 -69 66 l-8 42
42 -6 c22 -4 46 -12 53 -19z m-922 -41 c26 -11 36 -23 44 -52 6 -21 9 -40 7
-42 -2 -2 -20 0 -40 4 -39 7 -49 19 -61 72 -8 37 -1 39 50 18z m917 -98 c38
-11 44 -19 50 -78 3 -21 -1 -25 -21 -22 -47 5 -75 26 -82 62 -11 53 -7 56 53
38z m-878 -48 c17 -6 28 -21 35 -46 13 -47 8 -55 -31 -43 -41 11 -48 19 -58
63 -7 31 -5 36 10 36 10 0 30 -4 44 -10z m923 -111 c15 -5 23 -20 28 -49 4
-23 5 -44 2 -47 -6 -5 -77 15 -89 26 -4 3 -10 25 -14 49 l-7 43 29 -7 c16 -4
39 -10 51 -15z m-891 -34 c22 -6 34 -31 34 -74 0 -17 -4 -22 -16 -17 -9 3 -21
6 -27 6 -23 0 -39 18 -47 53 -9 40 -4 49 19 43 9 -2 26 -7 37 -11z m459 -186
c176 -50 328 -95 337 -100 10 -5 22 -18 28 -29 23 -43 76 -642 68 -770 -3 -48
-6 -55 -26 -58 -29 -4 -651 207 -673 229 -11 11 -18 44 -23 115 -11 156 -34
355 -62 533 -21 133 -23 166 -12 172 7 5 20 7 28 4 8 -2 159 -45 335 -96z
m473 53 c6 -9 12 -31 12 -50 0 -31 -2 -34 -25 -28 -63 16 -73 24 -77 63 -3 21
-4 41 -2 45 7 11 78 -12 92 -30z m-895 -14 c9 -5 17 -12 17 -17 0 -5 3 -23 6
-41 7 -32 7 -32 -27 -25 -44 9 -56 22 -64 68 -7 38 -7 38 21 31 16 -4 37 -11
47 -16z m883 -114 c29 -8 44 -32 44 -74 0 -28 -2 -30 -27 -24 -49 11 -70 31
-75 69 -5 40 -1 48 20 40 8 -3 25 -8 38 -11z m-854 -32 c5 -5 11 -25 15 -45 6
-42 0 -44 -51 -23 -28 12 -34 20 -38 50 -2 20 -2 38 0 40 5 6 64 -12 74 -22z
m867 -113 c50 -18 73 -99 29 -99 -44 0 -72 23 -79 63 -8 51 -3 54 50 36z
m-875 -13 c27 -11 35 -21 40 -51 4 -20 5 -39 2 -42 -3 -3 -23 1 -43 8 -35 13
-38 18 -41 57 -4 47 -4 47 42 28z m21 -140 c32 -14 35 -19 35 -55 0 -23 -2
-41 -5 -41 -16 0 -75 30 -75 38 0 5 -3 24 -6 41 -7 36 0 38 51 17z m903 -8
c13 -12 17 -88 3 -88 -4 0 -22 5 -40 11 -35 12 -51 35 -51 74 0 26 2 27 38 20
20 -4 43 -11 50 -17z m-871 -141 c6 -7 13 -28 15 -47 3 -38 -4 -40 -58 -20
-20 8 -24 17 -24 51 0 40 1 41 28 34 15 -3 32 -12 39 -18z m869 2 c16 -6 23
-18 26 -49 2 -23 2 -43 0 -45 -2 -2 -23 3 -47 11 -39 14 -43 19 -48 52 -7 57
-3 58 69 31z m-871 -131 c20 -9 25 -18 25 -50 0 -42 -10 -47 -55 -26 -20 9
-25 18 -25 50 0 42 10 47 55 26z m891 -19 c8 -6 14 -29 14 -50 0 -38 -1 -39
-27 -33 -47 11 -63 24 -63 49 0 13 -3 31 -7 41 -6 15 -2 16 31 11 21 -3 44
-11 52 -18z m-864 -133 c12 -17 9 -76 -2 -76 -6 0 -26 7 -45 14 -30 13 -35 20
-35 49 0 18 3 36 6 40 8 7 67 -13 76 -27z m853 0 c32 -14 35 -19 35 -55 0 -45
-8 -49 -57 -30 -35 13 -43 25 -43 67 0 37 12 40 65 18z m-875 -121 c24 -12 30
-22 30 -49 0 -42 -5 -47 -43 -34 -39 14 -47 24 -47 66 0 37 14 41 60 17z m888
-26 c18 -7 22 -16 22 -49 0 -44 -7 -47 -59 -29 -28 10 -31 15 -31 56 0 48 -1
48 68 22z m-872 -121 c15 -10 5 -78 -12 -78 -7 0 -25 5 -39 12 -20 9 -25 18
-25 48 0 20 3 39 6 43 6 6 49 -9 70 -25z m854 -14 c38 -15 40 -18 40 -61 0
-41 -1 -44 -22 -37 -67 20 -68 21 -68 69 0 25 2 45 5 45 2 0 23 -7 45 -16z
m-883 -109 c34 -14 35 -17 30 -51 -8 -48 -11 -50 -52 -31 -30 14 -35 22 -35
50 0 30 6 47 17 47 2 0 20 -7 40 -15z m910 -46 c16 -14 18 -89 1 -89 -28 0
-78 26 -84 43 -3 10 -3 30 1 44 5 22 10 25 37 19 17 -3 37 -11 45 -17z m-901
-110 c10 -8 9 -85 -2 -97 -6 -8 -74 20 -75 31 -2 23 3 82 7 89 5 8 51 -7 70
-23z m869 -23 c32 -14 35 -19 35 -55 0 -45 -6 -48 -59 -30 -28 10 -31 15 -31
55 0 48 4 51 55 30z m-11 -141 c33 -14 36 -19 36 -55 0 -21 -4 -41 -10 -45
-11 -7 -83 26 -81 38 0 4 1 23 1 42 0 40 3 41 54 20z m4 -162 c21 -13 23 -19
17 -56 -4 -23 -10 -45 -14 -49 -3 -3 -23 1 -43 9 -35 14 -38 19 -38 53 0 73
17 82 78 43z"/>
</g>
</svg>
